<svg width="80" height="80" viewBox="0 0 80 80" fill="none" xmlns="http://www.w3.org/2000/svg">
<path d="M79.7012 38.428C78.8937 36.476 77.1628 36.008 75.9915 35.896V24C75.9915 19.588 72.4058 16 67.9966 16H44.0119V10.44C45.2311 9.344 46.0106 7.768 46.0106 6C46.0106 4.4087 45.3789 2.88258 44.2544 1.75736C43.1299 0.632141 41.6048 0 40.0145 0C38.4242 0 36.899 0.632141 35.7745 1.75736C34.65 2.88258 34.0183 4.4087 34.0183 6C34.0183 7.768 34.7978 9.344 36.017 10.44V16H12.0323C7.62314 16 4.03742 19.588 4.03742 24V35.988L3.70963 36.012C2.70217 36.0848 1.75958 36.5365 1.07139 37.2763C0.38319 38.0162 0.00040872 38.9893 0 40V48C0 49.0609 0.421159 50.0783 1.17083 50.8284C1.92049 51.5786 2.93726 52 3.99745 52H4.03742V72C4.03742 76.412 7.62314 80 12.0323 80H67.9966C72.4058 80 75.9915 76.412 75.9915 72V52C77.0517 52 78.0685 51.5786 78.8181 50.8284C79.5678 50.0783 79.989 49.0609 79.989 48V40.248C80.035 39.6272 79.9365 39.0042 79.7012 38.428ZM12.0323 72V24H67.9966L68.0006 39.984L67.9966 40V48L68.0006 48.02L68.0046 72H12.0323Z" fill="#C7B070"/>
<path d="M26.0234 48C29.335 48 32.0196 44.4183 32.0196 40C32.0196 35.5817 29.335 32 26.0234 32C22.7118 32 20.0272 35.5817 20.0272 40C20.0272 44.4183 22.7118 48 26.0234 48Z" fill="#C7B070"/>
<path d="M54.0055 48C57.3171 48 60.0017 44.4183 60.0017 40C60.0017 35.5817 57.3171 32 54.0055 32C50.6939 32 48.0093 35.5817 48.0093 40C48.0093 44.4183 50.6939 48 54.0055 48Z" fill="#C7B070"/>
<path d="M24.0247 56H56.0043V64H24.0247V56Z" fill="#C7B070"/>
</svg>
