<svg width="38" height="45" viewBox="0 0 38 45" fill="none" xmlns="http://www.w3.org/2000/svg">
<path d="M21.7283 43.3333C12.3471 43.3333 4.13458 36.9999 1.7075 27.8895C-0.719584 18.7791 3.24292 9.16453 11.37 4.45203C15.3205 2.16074 19.9195 1.24456 24.4465 1.84701C28.9735 2.44945 33.1728 4.53649 36.3867 7.7812L29.4387 14.7958C28.4331 13.7878 27.2381 12.9886 25.9225 12.4442C24.6068 11.8997 23.1965 11.6207 21.7727 11.6232C20.3489 11.6257 18.9396 11.9097 17.6259 12.4588C16.3122 13.0079 15.12 13.8114 14.1179 14.8229C12.0878 16.8718 10.9489 19.6395 10.9489 22.5239C10.9489 25.4083 12.0878 28.176 14.1179 30.2249C15.12 31.2365 16.3122 32.0399 17.6259 32.589C18.9396 33.1381 20.3489 33.4221 21.7727 33.4246C23.1965 33.4271 24.6068 33.1481 25.9225 32.6037C27.2381 32.0592 28.4331 31.26 29.4387 30.252L36.4158 37.2666C34.4914 39.2 32.202 40.7319 29.6807 41.7734C27.1593 42.8148 24.4563 43.345 21.7283 43.3333Z" stroke="#C7B070" stroke-width="2" stroke-linecap="round" stroke-linejoin="round"/>
</svg>
