<svg width="27" height="27" viewBox="0 0 27 27" fill="none" xmlns="http://www.w3.org/2000/svg">
<path d="M12.2504 23.5008C18.4639 23.5008 23.5008 18.4639 23.5008 12.2504C23.5008 6.03698 18.4639 1 12.2504 1C6.03698 1 1 6.03698 1 12.2504C1 18.4639 6.03698 23.5008 12.2504 23.5008Z" stroke="#F7F9FA" stroke-width="2"/>
<path d="M9.75049 12.2501H12.2506M12.2506 12.2501H14.7507M12.2506 12.2501V14.7502M12.2506 12.2501V9.75M25.7661 24.7193C25.6873 24.8381 25.5461 24.9793 25.2623 25.2618C24.9798 25.5456 24.8373 25.6868 24.7198 25.7656C24.5559 25.8742 24.3712 25.9473 24.1775 25.9804C23.9837 26.0135 23.7852 26.0058 23.5946 25.9578C23.404 25.9098 23.2255 25.8226 23.0706 25.7017C22.9156 25.5807 22.7876 25.4288 22.6947 25.2556C22.6285 25.1306 22.571 24.9381 22.4572 24.5543C22.331 24.1355 22.2685 23.9255 22.256 23.778C22.2393 23.5739 22.2673 23.3685 22.3379 23.1763C22.4086 22.984 22.5202 22.8094 22.665 22.6645C22.8099 22.5197 22.9845 22.4081 23.1767 22.3374C23.369 22.2668 23.5744 22.2388 23.7785 22.2555C23.926 22.268 24.1348 22.3305 24.5548 22.4555C24.9386 22.5705 25.1298 22.628 25.2548 22.6955C25.428 22.7883 25.5799 22.9162 25.7008 23.071C25.8217 23.2258 25.909 23.4041 25.9571 23.5946C26.0052 23.785 26.0131 23.9834 25.9802 24.1771C25.9473 24.3707 25.8744 24.5554 25.7661 24.7193Z" stroke="#F7F9FA" stroke-width="2" stroke-linecap="round"/>
</svg>
