<svg width="27" height="27" viewBox="0 0 27 27" fill="none" xmlns="http://www.w3.org/2000/svg">
<path d="M12.2504 23.5008C18.4639 23.5008 23.5008 18.4639 23.5008 12.2504C23.5008 6.03698 18.4639 1 12.2504 1C6.03698 1 1 6.03698 1 12.2504C1 18.4639 6.03698 23.5008 12.2504 23.5008Z" stroke="#F7F9FA" stroke-width="2"/>
<path d="M9.75049 12.25H14.7507M25.7661 24.7192C25.6873 24.838 25.5461 24.9792 25.2623 25.2617C24.9798 25.5455 24.8373 25.6868 24.7198 25.7655C24.5559 25.8741 24.3712 25.9472 24.1775 25.9803C23.9837 26.0134 23.7852 26.0057 23.5946 25.9577C23.404 25.9097 23.2255 25.8225 23.0706 25.7016C22.9156 25.5806 22.7876 25.4287 22.6947 25.2555C22.6285 25.1305 22.571 24.938 22.4572 24.5542C22.331 24.1354 22.2685 23.9254 22.256 23.7779C22.2393 23.5738 22.2673 23.3684 22.3379 23.1762C22.4086 22.9839 22.5202 22.8093 22.665 22.6644C22.8099 22.5196 22.9845 22.408 23.1767 22.3374C23.369 22.2667 23.5744 22.2387 23.7785 22.2554C23.926 22.2679 24.1348 22.3304 24.5548 22.4554C24.9386 22.5704 25.1298 22.6279 25.2548 22.6954C25.428 22.7882 25.5799 22.9161 25.7008 23.0709C25.8217 23.2257 25.909 23.404 25.9571 23.5945C26.0052 23.7849 26.0131 23.9833 25.9802 24.177C25.9473 24.3707 25.8744 24.5553 25.7661 24.7192Z" stroke="#F7F9FA" stroke-width="2" stroke-linecap="round"/>
</svg>
